<svg width="196" height="60" viewBox="0 0 196 60" fill="none" xmlns="http://www.w3.org/2000/svg">
<path d="M3.42188 7.96875H9.72656C10.6797 7.96875 11.6641 8 12.6797 8.0625C13.7109 8.10938 14.7109 8.27344 15.6797 8.55469C16.6641 8.83594 17.5859 9.27344 18.4453 9.86719C19.3203 10.4453 20.0859 11.2656 20.7422 12.3281C21.3984 13.375 21.9141 14.7031 22.2891 16.3125C22.6797 17.9062 22.875 19.8594 22.875 22.1719V33.7969C22.875 36.1094 22.6797 38.0703 22.2891 39.6797C21.9141 41.2891 21.3984 42.6172 20.7422 43.6641C20.0859 44.7109 19.3203 45.5312 18.4453 46.125C17.5859 46.7031 16.6641 47.1328 15.6797 47.4141C14.7109 47.6953 13.7109 47.8672 12.6797 47.9297C11.6641 47.9766 10.6797 48 9.72656 48H3.42188V7.96875ZM11.0391 43.7578C12.1328 43.7578 13.0312 43.6172 13.7344 43.3359C14.4531 43.0547 15.0156 42.5625 15.4219 41.8594C15.8438 41.1406 16.1328 40.1719 16.2891 38.9531C16.4453 37.7188 16.5234 36.1641 16.5234 34.2891V21.8672C16.5234 19.9922 16.4453 18.4453 16.2891 17.2266C16.1328 15.9922 15.8438 15.0234 15.4219 14.3203C15.0156 13.6016 14.4531 13.1016 13.7344 12.8203C13.0312 12.5391 12.1328 12.3984 11.0391 12.3984H9.49219V43.7578H11.0391ZM32.3906 48.3516C31.3906 48.3516 30.5 48.1562 29.7188 47.7656C28.9531 47.3594 28.3047 46.8125 27.7734 46.125C27.2422 45.4375 26.8359 44.625 26.5547 43.6875C26.2891 42.7344 26.1562 41.7031 26.1562 40.5938C26.1562 39.2656 26.3203 38.0859 26.6484 37.0547C26.9766 36.0234 27.4531 35.0938 28.0781 34.2656C28.7188 33.4375 29.5078 32.6875 30.4453 32.0156C31.3828 31.3281 32.4688 30.6797 33.7031 30.0703C34.2969 29.7734 34.9609 29.4766 35.6953 29.1797C36.4453 28.8672 37.1094 28.6016 37.6875 28.3828V24.1172C37.6875 23.4922 37.6641 22.9141 37.6172 22.3828C37.5703 21.8359 37.4531 21.3672 37.2656 20.9766C37.0938 20.5703 36.8281 20.2578 36.4688 20.0391C36.1094 19.8047 35.6172 19.6875 34.9922 19.6875C34.5703 19.6875 34.1562 19.7656 33.75 19.9219C33.3594 20.0781 33.0078 20.3438 32.6953 20.7188C32.3984 21.0938 32.1562 21.5938 31.9688 22.2188C31.7969 22.8438 31.7109 23.6172 31.7109 24.5391V25.9453H27.1875C27.0469 25.3359 26.9375 24.7812 26.8594 24.2812C26.7969 23.7656 26.7656 23.2578 26.7656 22.7578C26.7656 21.5547 26.9688 20.4922 27.375 19.5703C27.7969 18.6484 28.375 17.875 29.1094 17.25C29.8594 16.625 30.75 16.1562 31.7812 15.8438C32.8125 15.5156 33.9453 15.3516 35.1797 15.3516C36.7891 15.3516 38.125 15.5313 39.1875 15.8906C40.25 16.2344 41.0938 16.7578 41.7188 17.4609C42.3594 18.1641 42.8047 19.0469 43.0547 20.1094C43.3203 21.1719 43.4531 22.4141 43.4531 23.8359V48H39.0469L38.625 45.2344C37.9844 46.1562 37.125 46.9062 36.0469 47.4844C34.9844 48.0625 33.7656 48.3516 32.3906 48.3516ZM35.0156 43.7812C35.5156 43.7812 36 43.6562 36.4688 43.4062C36.9531 43.1406 37.3594 42.8203 37.6875 42.4453V32.3438C37.375 32.4688 37.0234 32.6172 36.6328 32.7891C36.2422 32.9609 35.8203 33.1875 35.3672 33.4688C34.9453 33.7344 34.5312 34.0547 34.125 34.4297C33.7188 34.8047 33.3516 35.25 33.0234 35.7656C32.7109 36.2812 32.4531 36.8672 32.25 37.5234C32.0625 38.1641 31.9688 38.8828 31.9688 39.6797C31.9688 40.9141 32.2109 41.9062 32.6953 42.6562C33.1797 43.4062 33.9531 43.7812 35.0156 43.7812ZM49.5938 15.7266H54.1641L54.7031 19.1719V19.1953C55.1719 18.4609 55.6719 17.8516 56.2031 17.3672C56.75 16.8672 57.3125 16.4688 57.8906 16.1719C58.4688 15.875 59.0547 15.6641 59.6484 15.5391C60.2578 15.4141 60.8594 15.3516 61.4531 15.3516C63.3438 15.3516 64.7969 16.0156 65.8125 17.3438C66.8438 18.6562 67.3594 20.6328 67.3594 23.2734V48H61.4297V23.4844C61.4297 22.0625 61.2109 21.0781 60.7734 20.5312C60.3359 19.9688 59.6953 19.6875 58.8516 19.6875C58.2578 19.6875 57.6641 19.8828 57.0703 20.2734C56.4922 20.6641 55.9766 21.2031 55.5234 21.8906V48H49.5938V15.7266Z" fill="black"/>
<path d="M132.422 7.96875H138.727C139.68 7.96875 140.664 8 141.68 8.0625C142.711 8.10938 143.711 8.27344 144.68 8.55469C145.664 8.83594 146.586 9.27344 147.445 9.86719C148.32 10.4453 149.086 11.2656 149.742 12.3281C150.398 13.375 150.914 14.7031 151.289 16.3125C151.68 17.9062 151.875 19.8594 151.875 22.1719V33.7969C151.875 36.1094 151.68 38.0703 151.289 39.6797C150.914 41.2891 150.398 42.6172 149.742 43.6641C149.086 44.7109 148.32 45.5312 147.445 46.125C146.586 46.7031 145.664 47.1328 144.68 47.4141C143.711 47.6953 142.711 47.8672 141.68 47.9297C140.664 47.9766 139.68 48 138.727 48H132.422V7.96875ZM140.039 43.7578C141.133 43.7578 142.031 43.6172 142.734 43.3359C143.453 43.0547 144.016 42.5625 144.422 41.8594C144.844 41.1406 145.133 40.1719 145.289 38.9531C145.445 37.7188 145.523 36.1641 145.523 34.2891V21.8672C145.523 19.9922 145.445 18.4453 145.289 17.2266C145.133 15.9922 144.844 15.0234 144.422 14.3203C144.016 13.6016 143.453 13.1016 142.734 12.8203C142.031 12.5391 141.133 12.3984 140.039 12.3984H138.492V43.7578H140.039ZM164.719 48.3516C163.328 48.3516 162.094 48.0938 161.016 47.5781C159.953 47.0625 159.055 46.2578 158.32 45.1641C157.586 44.0703 157.031 42.6719 156.656 40.9688C156.281 39.25 156.094 37.1875 156.094 34.7812V28.6875C156.094 26.6406 156.242 24.8906 156.539 23.4375C156.852 21.9688 157.25 20.7422 157.734 19.7578C158.234 18.7578 158.805 17.9688 159.445 17.3906C160.102 16.8125 160.773 16.375 161.461 16.0781C162.148 15.7656 162.828 15.5703 163.5 15.4922C164.188 15.3984 164.82 15.3516 165.398 15.3516C166.461 15.3516 167.484 15.5156 168.469 15.8438C169.453 16.1562 170.32 16.7031 171.07 17.4844C171.82 18.25 172.414 19.2812 172.852 20.5781C173.305 21.875 173.531 23.4922 173.531 25.4297C173.531 26.0859 173.508 26.75 173.461 27.4219C173.43 28.0938 173.383 28.7578 173.32 29.4141C173.258 30.0547 173.172 30.6797 173.062 31.2891C172.969 31.8984 172.867 32.4609 172.758 32.9766H162.047V36.2578C162.047 37.6641 162.102 38.8516 162.211 39.8203C162.32 40.7734 162.5 41.5469 162.75 42.1406C163.016 42.7188 163.367 43.1406 163.805 43.4062C164.258 43.6562 164.82 43.7812 165.492 43.7812C165.852 43.7812 166.203 43.7109 166.547 43.5703C166.891 43.4141 167.188 43.1641 167.438 42.8203C167.703 42.4766 167.914 42.0234 168.07 41.4609C168.227 40.8828 168.305 40.1719 168.305 39.3281V38.3203H173.25V39.5625C173.25 42.625 172.516 44.8594 171.047 46.2656C169.594 47.6562 167.484 48.3516 164.719 48.3516ZM168 28.9922C168.016 28.8203 168.031 28.5938 168.047 28.3125C168.062 28.0156 168.07 27.7109 168.07 27.3984C168.086 27.0859 168.094 26.7812 168.094 26.4844C168.094 26.1719 168.094 25.9062 168.094 25.6875C168.094 23.5625 167.844 22.0312 167.344 21.0938C166.844 20.1562 166.102 19.6875 165.117 19.6875C164.602 19.6875 164.148 19.8125 163.758 20.0625C163.367 20.2969 163.047 20.7031 162.797 21.2812C162.547 21.8438 162.359 22.5938 162.234 23.5312C162.109 24.4688 162.047 25.6328 162.047 27.0234V28.9922H168ZM175.875 15.7266H181.781L184.898 32.8828L185.672 39.75H185.859L186.75 32.8828L189.844 15.7266H195.562L188.203 48H183.141L175.875 15.7266Z" fill="black"/>
<g clip-path="url(#clip0_201_10)">
<path d="M82.9581 18.167C79.2108 22.2016 75.4635 26.2362 71.7162 30.2707C70.3442 31.748 71.0701 33.7623 72.8194 34.4492C77.4398 36.2635 81.6173 39.0944 85.108 42.6097C87.3785 44.8962 90.9143 41.361 88.6435 39.0742C84.5152 34.9168 79.5926 31.7655 74.1486 29.6278L75.2518 33.8063C78.9991 29.7717 82.7463 25.7371 86.4936 21.7025C88.6813 19.3471 85.1535 15.8032 82.9581 18.167Z" fill="#47884A"/>
<path d="M113.269 21.7025C117.016 25.7371 120.763 29.7717 124.511 33.8063C124.878 32.4135 125.246 31.0206 125.614 29.6278C120.17 31.7656 115.247 34.9168 111.119 39.0742C108.849 41.36 112.383 44.8972 114.655 42.6097C118.145 39.0943 122.323 36.2636 126.943 34.4492C128.692 33.7623 129.418 31.748 128.046 30.2708C124.299 26.2362 120.552 22.2016 116.804 18.167C114.61 15.8042 111.08 19.3461 113.269 21.7025Z" fill="#47884A"/>
<path d="M95.6905 49.9371C100.606 37.3477 105.522 24.7582 110.437 12.1688C110.928 10.9107 109.897 9.42485 108.691 9.09347C107.275 8.70442 106.109 9.57689 105.616 10.8396C100.7 23.429 95.7846 36.0185 90.8691 48.6079C90.3779 49.866 91.4092 51.3518 92.6152 51.6832C94.0311 52.0723 95.1975 51.1998 95.6905 49.9371Z" fill="#47884A"/>
</g>
<defs>
<clipPath id="clip0_201_10">
<rect width="57.7626" height="42.7767" fill="white" transform="translate(71 9)"/>
</clipPath>
</defs>
</svg>
